<?xml version="1.0" encoding="UTF-8"?>
<svg id="Calque_2" data-name="Calque 2" xmlns="http://www.w3.org/2000/svg" viewBox="0 0 115.8 116.85">
  <defs>
    <style>
      .cls-1 {
        fill: #2e7265;
      }
    </style>
  </defs>
  <g id="Calque_6" data-name="Calque 6">
    <path class="cls-1" d="m92.41,65.2c-.88,1-.87,2.88,0,3.93.59.72,1.58,1.02,4.39.93,3.18-.11,5.06-.58,7.16-.93,5.01-.81,7.51-1.22,9.24.23,1.78,1.49,2.21,4.48,1.39,6.7-1.17,3.18-4.71,4.23-6.01,4.62-4.24,1.26-6.68-.35-16.62-2.77-8.09-1.97-10.63-1.91-12.7-1.62-2.62.37-6.17,1.37-8.78,4.16-1.74,1.87-2.02,3.43-2.08,3.93-.2,1.48.06,3.88,1.62,4.85.6.37,1.66.7,5.54-.69,3.86-1.39,4.31-2.24,6.46-3.01,5.89-2.07,11.81,1.03,12.94,1.62,2.07,1.08,3.99,2.09,5.08,4.39,1.22,2.58,1.04,6.05-.92,8.54-2.74,3.49-7.39,3.08-8.08,3.01-3.86-.41-4.12-2.9-8.54-3.93-.69-.16-5.63-1.23-9.47,1.39-1.41.96-1.5,1.61-4.16,5.54-3.38,4.99-5.07,7.49-7.16,8.78-.57.36-6.1,3.66-10.16.93-2.27-1.53-3.81-4.75-3.01-7.16.71-2.12,2.69-1.99,6.01-5.31,1.17-1.17,4.23-4.24,3.47-5.78-.49-.98-2.79-.89-7.39-.69-4.19.19-6.32.3-8.08,1.16-2.6,1.27-2.44,2.49-5.31,4.85-2.02,1.66-6.17,5.06-10.85,4.16-3.2-.62-6.3-3.16-7.39-6.7-1.36-4.39.88-8.67,3.47-10.85,3.02-2.56,6.76-2.46,12.24-2.31,7.13.19,9.07,1.98,14.78.93,1.37-.25,6.66-1.23,6.92-3.47.18-1.52-2.01-3.33-4.15-3.93-2.81-.78-4.15.92-8.32,1.61-.82.14-8.14,1.37-10.16-1.85-1.56-2.48.69-6.57,1.39-7.85,2.43-4.41,5.74-5.38,5.31-6.7-.5-1.56-5.74-2.25-9.46,0-1.43.86-2.02,1.78-4.62,5.77-5.43,8.34-5.72,8.76-6.47,9.47-.92.88-6.39,6.1-11.08,4.16-3.37-1.39-5.03-5.95-4.62-9.47.35-2.94,2.39-5.16,6.46-9.47,5.45-5.76,8.62-7.46,8.08-9-.4-1.12-3.27-1.46-9-2.08-5.91-.64-6.97-.33-8.08-1.39-2.63-2.5-2.14-9.39,1.61-12.7,4.61-4.07,12.29-1.11,13.4-.69,6.72,2.57,6.85,7.24,13.86,9.46,3.24,1.03,8.38,1.68,9.7-.46,1.53-2.5-2.86-7.6-3.47-8.32-3.01-3.49-6.65-5.06-8.78-5.77l-9,2.13c-2.75-.47-4.87-2.23-5.31-4.39-.57-2.78,1.84-5.2,3.47-6.23,3.13-2.01,5.17,0,9.24-1.85.47-.22,3.69-1.73,5.54-5.08,1.77-3.18.42-4.61,2.08-7.39,1.46-2.45,4.8-5.18,7.85-4.39,3.25.84,5.18,5.38,4.62,8.78-.62,3.71-3.88,3.96-5.31,8.77-.35,1.2-1.31,4.39.23,7.17,1.44,2.6,4.53,4.79,7.39,4.39,2.07-.3,3.24-1.82,4.29-3.32-1.5-2.19-2.48-4.74-2.35-7.19.24-4.68,4.32-5.18,3.9-8.82-.4-3.49-4.23-3.7-5.69-8.4-.18-.58-1.53-5.17.99-7.79,1.97-2.06,5.67-2.21,8.28-1.05,5.32,2.38,4.56,9.58,8.47,10.38,2.77.57,3.76-2.94,8.86-3.77.32-.05,7-1.06,8.99,2.54,1.47,2.65-.12,6.83-2.73,8.73-2.6,1.9-4.42.24-10.92,1.65-3.46.75-6.68,1.49-7.96,4.11-.64,1.31-1.08,3.64.08,4.9,2.03,2.23,6.58-1.53,11.54.76,1.82.84,4.12,2.7,4.06,4.7-.09,3.2-6.15,5.25-9.12,5.83-.66.13-3.86.71-7.53-.23-1.51,1.1-4.25,1.1-6.45,3.85-1.46,1.83-1.75,3.91-2.31,8.08-.79,5.77.08,9.61.46,11.08.91,3.47,2.04,4.69,2.77,5.31,1.66,1.4,4.12,2.14,4.85,1.39.26-.28.13-.58.23-2.31.06-.96.11-.95.23-2.31.16-1.79.14-2.47.23-3.93,0-.1.15-2.36.46-4.39.14-.91.57-3.55,1.62-6.23,1.11-2.83,2.26-5.75,5.08-7.62,2.45-1.63,7.14-3.12,10.16-.69,2.79,2.25,2.8,6.75,1.85,9.47-.81,2.29-1.99,2.43-2.77,5.08-.71,2.43-.8,6.01.69,6.7,1.3.6,3.78-1.01,4.62-3,.39-.91.15-1.24.23-4.62,0,0,.04-1.78.23-4.16.25-3.1.37-4.65.69-5.55,1.08-2.92,3.47-2.77,6.24-5.54,3.12-3.13,1.61-4.87,4.85-10.16,1.62-2.65,4.86-7.96,8.77-7.62,2.87.25,5.03,3.43,5.78,5.77.88,2.79.06,5.3-.93,8.31-.92,2.8-2.15,4.72-2.54,5.31-2.11,3.18-3.42,3.3-6.24,6.47-3.25,3.67-5.46,8.01-4.85,8.54.21.18.67-.18,2.54-1.16,2.2-1.15,2.24-1,4.39-2.07,4.48-2.26,4.15-2.82,6.01-3.24.85-.18,3.95-.88,5.77.93,1.75,1.73,1.36,4.82.47,6.7-1.22,2.56-3.71,3.56-5.78,4.39-4.13,1.66-8.69,1.73-11.08,1.62-3.08-.14-4.77-.66-5.77.46Z"/>
  </g>
</svg>