<?xml version="1.0" encoding="utf-8"?>
<!-- Generator: Adobe Illustrator 26.5.0, SVG Export Plug-In . SVG Version: 6.00 Build 0)  -->
<svg version="1.1" xmlns="http://www.w3.org/2000/svg" xmlns:xlink="http://www.w3.org/1999/xlink" x="0px" y="0px"
	 viewBox="0 0 1304 327" style="enable-background:new 0 0 1304 327;" xml:space="preserve">
<style type="text/css">
	.st0{fill-rule:evenodd;clip-rule:evenodd;fill:#2E7265;}
	.st1{fill:#76BCB0;}
</style>
<g id="waveBack_00000098937168896877269130000012851564088999825281_">
	<path id="waveBack" class="st0" d="M240.6,20.5C210.6,12,131.4-6.9,0,2.6V327h1304v-34.6c-12.8-0.6-27.2-1.4-45.5-3.5
		c-58.7-6.6-99.5-18.8-122.8-25.8c-39.1-11.7-54.9-20.5-71.3-29.7c-14.2-8-28.9-16.2-59.9-26.8c-62.6-21.4-123.9-29.2-174.8-35.7
		l0,0c-35.3-4.5-52.5-5.3-75.6-6.3c-21.3-0.9-47.5-2.1-97.1-6.6c-104.3-9.4-139.6-13.6-191.5-28.2c-27.3-7.7-61.1-26.3-91.6-51.1
		C347.4,57.4,294.8,35.8,240.6,20.5z"/>
</g>
<g id="wave_00000131342632508389293330000006288058217082521791_">
	<path id="wave" class="st1" d="M0,135c22.2,15.2,67.7,39.9,153,55.8c63.1,11.8,126,14.8,146.3,15.7c88.9,3.9,126-0.9,191.3,5.9
		c62.8,6.5,104.2,18.6,121,29c39.9,24.7,76,38.9,113.2,45.5c32.3,5.7,101.2,14.2,178.4,16.5c40,1.2,27.3,0.9,124.6,3.5
		c121.7,3.3,177.6,4.3,205.4,7.8c31.5,4.1,55.5,8.8,70.9,12.2H0V135z"/>
</g>
</svg>
